<svg id="SvgjsSvg1001" width="288" height="288" xmlns="http://www.w3.org/2000/svg" version="1.1" xmlns:xlink="http://www.w3.org/1999/xlink" xmlns:svgjs="http://svgjs.com/svgjs"><defs id="SvgjsDefs1002"></defs><g id="SvgjsG1008" transform="matrix(0.916700005531311,0,0,0.916700005531311,11.994749069213867,11.993247985839844)"><svg xmlns="http://www.w3.org/2000/svg" enable-background="new 0 0 82.86 122.88" viewBox="0 0 82.86 122.88" width="288" height="288"><path fill-rule="evenodd" d="M44.59,115.61C60.43,121.69,84.32,99,82.79,73.9c-17.12-0.7-31.77,10.01-38.2,21.74v-22 c18.89-1.6,33.73-17.45,33.73-36.75C78.32,16.52,61.81,0,41.43,0C21.06,0,4.54,16.52,4.54,36.89c0,19.31,14.83,35.15,33.72,36.75 v19.54c-7.6-10.94-22.19-20.43-38.2-19.78c-1.46,24.03,22.14,46.25,38.2,42.81v6.65h6.33V115.61L44.59,115.61z M55.47,26.19 l-9.08,1.43c-0.46-1.15-0.86-1.94-1.23-2.38c-0.37-0.44-0.96-0.89-1.81-1.34v7.04c4.93,1.32,8.22,2.71,9.88,4.16 c2.19,1.97,3.28,4.45,3.28,7.48c0,1.76-0.39,3.39-1.18,4.86c-0.79,1.48-1.8,2.71-3.02,3.71c-1.22,0.99-2.53,1.7-3.91,2.15 c-1.38,0.45-3.07,0.71-5.06,0.79v4.59h-3.54v-4.59c-2.39-0.21-4.32-0.59-5.81-1.15c-1.48-0.56-2.77-1.33-3.85-2.32 c-1.07-0.98-1.91-2.04-2.49-3.18c-0.58-1.14-1.02-2.52-1.31-4.13l9.82-1.14c0.29,1.6,0.69,2.75,1.19,3.46 c0.49,0.71,1.31,1.34,2.45,1.89v-8.61c-3.29-0.91-5.62-1.7-6.99-2.36c-1.37-0.66-2.56-1.74-3.57-3.21 c-1.01-1.47-1.51-3.26-1.51-5.37c0-2.89,1.01-5.31,3.03-7.25c2.03-1.94,5.04-3.03,9.03-3.23V15.1h3.54v2.39 c3.64,0.22,6.42,1.08,8.35,2.58C53.62,21.56,54.89,23.59,55.47,26.19L55.47,26.19z M39.81,23.78c-1.05,0.34-1.77,0.76-2.18,1.26 c-0.41,0.5-0.61,1.1-0.61,1.78c0,0.71,0.21,1.33,0.62,1.85c0.42,0.53,1.14,0.97,2.17,1.33V23.78L39.81,23.78z M43.35,47.76 c1.38-0.31,2.39-0.82,3.03-1.53c0.64-0.71,0.96-1.5,0.96-2.38c0-0.76-0.27-1.47-0.81-2.12c-0.54-0.64-1.6-1.24-3.17-1.79V47.76 L43.35,47.76z M43.66,109.94c5.01-8.41,14.53-15.11,21.62-20.6c0.84-0.65,1.68-1.3,2.36-1.83c0.47-0.36,1.14-0.28,1.5,0.18 c0.36,0.47,0.28,1.14-0.18,1.5c-0.88,0.69-1.61,1.26-2.36,1.84c-6.59,5.1-15.54,11.36-20.39,18.9H43.66L43.66,109.94z M13.22,86.25 c-0.45-0.42-0.48-1.12-0.06-1.57c0.42-0.45,1.12-0.48,1.57-0.06c8.58,7.94,16.69,14.99,22.36,25.32h-2.55 C29.01,100.32,21.3,93.72,13.22,86.25L13.22,86.25z" clip-rule="evenodd" fill="#ffffff" class="color000 svgShape"></path></svg></g></svg>