<svg width="240" height="240" viewBox="0 0 240 240" fill="none" xmlns="http://www.w3.org/2000/svg">
<g clip-path="url(#clip0)">
<circle cx="120" cy="120" r="120" fill="#3CCD7F"/>
<path d="M170.789 148.641C170.789 157.495 168.543 165.372 164.051 172.273C159.559 179.109 153.081 184.448 144.617 188.289C136.154 192.065 126.225 193.953 114.832 193.953C105.327 193.953 97.3516 193.302 90.9062 192C84.4609 190.633 77.7552 188.289 70.7891 184.969V150.594C78.1458 154.37 85.7956 157.332 93.7383 159.48C101.681 161.564 108.973 162.605 115.613 162.605C121.342 162.605 125.542 161.629 128.211 159.676C130.88 157.658 132.215 155.086 132.215 151.961C132.215 150.008 131.661 148.315 130.555 146.883C129.513 145.385 127.788 143.888 125.379 142.391C123.035 140.893 116.72 137.833 106.434 133.211C97.1237 128.979 90.125 124.878 85.4375 120.906C80.8151 116.935 77.3646 112.378 75.0859 107.234C72.8724 102.091 71.7656 96.0039 71.7656 88.9727C71.7656 75.8216 76.5508 65.5677 86.1211 58.2109C95.6914 50.8542 108.842 47.1758 125.574 47.1758C140.353 47.1758 155.424 50.5938 170.789 57.4297L158.973 87.2148C145.626 81.0951 134.103 78.0352 124.402 78.0352C119.389 78.0352 115.743 78.9141 113.465 80.6719C111.186 82.4297 110.047 84.6107 110.047 87.2148C110.047 90.0143 111.479 92.5208 114.344 94.7344C117.273 96.9479 125.151 100.984 137.977 106.844C150.281 112.378 158.81 118.335 163.562 124.715C168.38 131.03 170.789 139.005 170.789 148.641Z" fill="white"/>
</g>
<defs>
<clipPath id="clip0">
<rect width="240" height="240" fill="white"/>
</clipPath>
</defs>
</svg>
